<svg width="64px" height="64px" viewBox="0 0 24 24" fill="none" xmlns="http://www.w3.org/2000/svg"><g id="SVGRepo_bgCarrier" stroke-width="0"></g><g id="SVGRepo_tracerCarrier" stroke-linecap="round" stroke-linejoin="round"></g><g id="SVGRepo_iconCarrier"> <path fill-rule="evenodd" clip-rule="evenodd" d="M10 1C9.73478 1 9.48043 1.10536 9.29289 1.29289L3.29289 7.29289C3.10536 7.48043 3 7.73478 3 8V20C3 21.6569 4.34315 23 6 23H18C19.6569 23 21 21.6569 21 20V4C21 2.34315 19.6569 1 18 1H10ZM11 3H18C18.5523 3 19 3.44772 19 4V20C19 20.5523 18.5523 21 18 21H6C5.44772 21 5 20.5523 5 20V9H10C10.5523 9 11 8.55228 11 8V3ZM9 7H6.41421L9 4.41421V7ZM16.7682 12.6402C17.1218 12.2159 17.0645 11.5853 16.6402 11.2318C16.2159 10.8782 15.5853 10.9355 15.2318 11.3598L10.9328 16.5186L8.70711 14.2929C8.31658 13.9024 7.68342 13.9024 7.29289 14.2929C6.90237 14.6834 6.90237 15.3166 7.29289 15.7071L10.2929 18.7071C10.4916 18.9058 10.7646 19.0117 11.0453 18.999C11.326 18.9862 11.5884 18.856 11.7682 18.6402L16.7682 12.6402Z" fill="#000000"></path> </g></svg>
